<?xml version="1.0" encoding="UTF-8" standalone="no"?>
<svg
   xmlns:dc="http://purl.org/dc/elements/1.1/"
   xmlns:cc="http://creativecommons.org/ns#"
   xmlns:rdf="http://www.w3.org/1999/02/22-rdf-syntax-ns#"
   xmlns:svg="http://www.w3.org/2000/svg"
   xmlns="http://www.w3.org/2000/svg"
   viewBox="0 0 495.46667 393.97333"
   height="393.97333"
   width="495.46667"
   xml:space="preserve"
   id="svg2"
   version="1.1"><metadata
     id="metadata8"><rdf:RDF><cc:Work
         rdf:about=""><dc:format>image/svg+xml</dc:format><dc:type
           rdf:resource="http://purl.org/dc/dcmitype/StillImage" /></cc:Work></rdf:RDF></metadata><defs
     id="defs6"><clipPath
       id="clipPath20"
       clipPathUnits="userSpaceOnUse"><path
         id="path18"
         d="M 0,2954.83 V 0 h 3716 v 2954.83" /></clipPath></defs><g
     transform="matrix(1.3333333,0,0,-1.3333333,0,393.97333)"
     id="g10"><g
       transform="scale(0.1)"
       id="g12"><g
         id="g14"><g
           clip-path="url(#clipPath20)"
           id="g16"><path
             id="path22"
             style="fill:#222222;fill-opacity:1;fill-rule:nonzero;stroke:none"
             d="m 7.80859,2943.13 1276.39141,3.9 245.92,-355.21 218.59,23.42 -19.52,-121.01 101.48,-19.51 7.81,-85.88 c 0,0 -7.81,-42.93 27.33,-35.12 35.13,7.8 152.23,50.74 214.68,42.93 l 394.24,558.18 1241.27,-7.8 V 1736.99 h -226.4 v -542.57 l 226.4,-3.9 V 7.80078 L 2131.23,3.89844 V 655.762 L 1873.61,284.941 1608.18,640.148 V 7.80078 L 11.7109,0 0,1194.43 l 257.621,7.81 3.906,339.59 c 0,0 -50.742,113.2 -7.804,195.17 L 0,1740.9 7.80859,2943.13" /><path
             id="path24"
             style="fill:#ffffff;fill-opacity:1;fill-rule:nonzero;stroke:none"
             d="m 165.652,2801.45 1045.218,-2.24 667.32,-931.57 674.69,927.68 1022.74,-0.6 5.64,-921.48 h -211.13 l 1.43,-824.41 208.26,-1.44 -0.01,-897.66 -1312.76,10.059 5.75,884.751 205.53,3.5 4.17,378.55 -607.54,-897.66 -610.35,913.23 -0.07,-393.3 215.44,-2.88 -0.39,-898.16 H 153.895 v 900.22 l 244.582,-0.62 2.871,841.65 -234.012,0.96 -1.684,911.42" /><path
             id="path26"
             style="fill:#eb232d;fill-opacity:1;fill-rule:nonzero;stroke:none"
             d="m 250.387,2728.33 947.033,-0.78 706.13,-994.99 700.9,978.86 926.36,-1.79 -0.66,-765.59 -213.91,-6.04 -9.36,-984.012 206.34,2.762 V 208.699 l -1158.91,6.051 -1.39,752.672 216.49,3.816 -19.43,650.072 -671.81,-963.068 -676.74,1019.938 -4.01,-710.758 215.5,0.187 4.82,-739.578 -1184.279,-4.832 0.008,754.082 246.527,-1.199 5.316,990.088 -232.89,4.47 -2.035,757.69" /><path
             id="path28"
             style="fill:#ffffff;fill-opacity:1;fill-rule:nonzero;stroke:none"
             d="m 666.094,2234.08 c 0,0 14.605,86.02 21.754,100.31 16.59,33.15 95.097,116.9 105.812,116.9 10.719,0 40.41,-81.86 51.285,-119.32 6.063,-20.87 6.262,-65.31 20.547,-68.88 14.293,-3.57 111.613,52.76 129.473,59.91 17.865,7.13 75.075,25.64 92.945,25.64 l 15.8,-5.75 c 0,0 -3.39,-22.91 35.9,-8.61 39.3,14.29 105.73,51.07 137.89,68.94 32.14,17.85 34.46,-31.6 28.72,-57.45 -8.83,-39.76 82.01,17.96 110.59,21.54 38.82,4.85 -10.36,30.62 24.42,44.53 55.98,22.39 88.12,31.95 130.7,25.85 10.05,-1.44 -33.03,-74.69 -5.74,-80.43 42.09,-8.87 143.62,7.17 143.62,-18.67 0,-40.32 -2.87,-80.43 2.88,-97.67 5.74,-17.24 98.65,-18.01 152.24,-28.73 53.59,-10.71 64.63,17.24 83.3,18.68 0,0 219.75,57.45 435.99,-55.44 106.72,-55.71 207.66,-99.2 220.96,-104.52 35.72,-14.28 144.53,-74.8 229.2,-18.34 0,0 35.31,137.34 260.37,130.19 225.05,-7.14 237.96,26.45 296.13,54.09 54.12,25.72 61.42,22.92 95.35,20.17 32.23,-2.61 33.93,-94.43 -10.08,-141.18 -28.57,-30.35 -74.9,-126.57 -228.09,-182.28 -110.6,-40.22 -235.77,-40.34 -251.35,-43.09 -47.19,-8.33 -140.73,-36.33 -167.84,-46.01 -25.67,-9.17 -55.92,-17.42 -67.85,-29.34 -8.31,-8.3 -8.93,-37.09 -38.52,-99.01 -10.08,-21.09 -40.49,-48.48 -69.06,-91.35 -28.6,-42.87 -41.87,-46.08 -90.45,-108.51 -37.38,-48.04 -94.84,-128.48 -144.81,-175.17 -45.57,-42.57 -63.02,-145.78 -69.12,-159.51 -6.11,-13.73 -43.28,-32.2 -60.25,-44.31 -24.81,-17.72 -30.72,-28.68 -53.17,-56.7 -7.09,-8.87 -15.36,-27.92 -7.54,-62.22 8.86,-38.981 13.3,-89.41 5.17,-124.879 0.61,2.641 -47.69,-16.992 -77.6,-16.992 -21.27,0 -47.28,2.953 -47.28,2.953 -21.83,6.219 -43.6,53.937 -59.86,61.328 -19.07,8.66 -41.79,35.41 -65.03,44.34 -17.94,6.89 -16.16,0.18 -25.86,-5.168 C 1900,948.148 1777.33,851.34 1764.03,847.648 c -23.05,-6.398 -11.46,-62.898 -47.3,-96.808 0,0 -41.88,-25.61 -101.38,-10.559 -2.27,0.59 -77.68,21.91 -85.07,85.078 -7.54,64.5 23.05,90.371 23.05,90.371 0,0 -2.71,39.102 8.01,53.399 10.72,14.301 56.05,33.531 91.78,40.681 35.72,7.14 59.32,28.04 77.18,45.89 17.86,17.88 11.58,33.89 31.29,50.06 0,0 -21.2,1.69 -60.5,55.29 0,0 -89.39,-17.67 -124.11,-26.08 -34.43,-8.34 -90.29,-28.27 -119.95,-51.1 -13.07,-10.06 -67.07,-27.71 -81.36,-6.26 -6.42,9.63 -78.61,22.81 -86.56,77.19 -9.75,66.64 20.28,135.15 20.86,151.24 1.04,29.2 7.57,36.72 10.43,80.31 4.17,63.62 12.03,102.44 19.33,128.51 28.97,103.49 10.54,85.72 -15.53,118.05 -58.69,72.78 -71.45,94.28 -142.9,133.58 -71.44,39.3 -234.722,118.79 -246.929,119.56 -12.215,0.76 -23.453,-18.88 -27.023,-43.9 -3.571,-25 -35.457,-54.23 -70.922,-66.75 -55.563,-19.61 -86.91,-16.86 -126.207,-49.02 -39.289,-32.15 -46.367,-83.78 -67.797,-123.08 -21.438,-39.29 -61.152,-71.41 -98.043,-90.74 -21.902,-11.48 -128,45.19 -140.524,62.92 -12.515,17.73 -35.75,73.72 -13.843,102.92 25.718,34.29 68.008,83.42 82.293,140.58 26.379,105.47 63.769,217.31 70.257,230.29 25.012,50.02 42.387,34.32 85.258,80.77 42.868,46.43 32.235,75.04 38.274,104.04" /><path
             id="path30"
             style="fill:#231f20;fill-opacity:1;fill-rule:nonzero;stroke:none"
             d="m 688.992,2185.6 c 0,0 7.86,71.15 14.781,84.98 6.926,13.84 17.735,36.95 17.735,36.95 0,0 28.062,60.38 38.441,60.38 10.383,0 32.731,-18.93 36.196,-39.69 3.46,-20.76 20.886,-124.38 34.73,-127.84 13.844,-3.45 153.992,77.57 171.295,84.48 17.3,6.93 33.09,14.55 50.39,14.55 l -5.41,-31.85 c 0,0 3.46,-3.46 41.52,10.38 38.06,13.85 72.67,34.61 103.81,51.9 31.14,17.3 76.12,27.68 51.9,-3.46 -24.22,-31.13 -10.38,-41.52 17.3,-38.06 27.69,3.47 96.88,20.77 131.49,34.61 34.6,13.84 103.81,27.68 65.75,-3.47 -38.07,-31.14 -55.37,-55.36 -13.85,-58.82 41.53,-3.46 110.73,13.84 152.25,10.38 41.53,-3.46 76.13,6.92 27.68,-31.14 -48.44,-38.06 -48.44,-38.06 -48.44,-38.06 0,0 41.52,-34.6 93.43,-44.98 51.9,-10.38 152.25,-13.84 214.53,-34.61 0,0 291.76,105.58 506.3,8.7 214.54,-96.89 182.29,-95.21 216.89,-109.04 34.59,-13.84 151.85,-57.24 233.87,-2.55 0,0 18.71,140.95 236.71,134.04 218,-6.92 186.85,-3.47 245.67,17.3 58.83,20.76 71.73,49.89 102.88,53.36 31.14,3.46 35.53,-11.84 14.77,-46.44 -20.76,-34.6 -134.95,-193.77 -332.18,-217.99 -197.22,-24.23 -235.29,-41.53 -276.81,-62.29 -41.53,-20.76 -89.97,-24.22 -114.19,-38.06 -24.22,-13.84 -13.83,3.46 -27.68,-55.37 -13.85,-58.82 -51.9,-114.18 -93.43,-166.09 -41.52,-51.9 -63.54,-55.78 -91.23,-97.31 -27.68,-41.52 -59.85,-72.41 -116.38,-124.14 -53.85,-49.27 -100.34,-86.5 -100.34,-124.56 0,-38.07 10.38,-69.21 -20.77,-89.97 -31.14,-20.76 -83.95,-18.98 -148.98,-29.33 -59.68,-9.5 -95.33,-44.33 -101.24,-57.64 -5.91,-13.3 14.01,-13.73 24.39,-31.03 10.38,-17.31 2.35,-32 36.95,-35.47 34.6,-3.47 48.23,17.1 62.07,-14.04 13.84,-31.15 12.57,-45.08 12.62,-81.619 0,2.629 -41.44,-1.152 -64.35,16.59 -15.23,11.789 -43.69,18.739 -80.97,28.391 -18.79,4.858 -41.49,46.118 -65.71,63.408 0,0 -18.51,-53.43 -76.16,-77.248 -17.32,-7.16 -38.17,-22.344 -62.4,-50.023 -24.22,-27.68 -38.53,-55.649 -75.37,-42.86 0,0 -23.15,-35.129 -26.6,-62.808 0,0 -23.68,-28.461 -81.31,-13.86 -2.19,0.551 -51.38,23.078 -2.94,61.149 48.45,38.07 37.55,35.73 37.55,35.73 0,0 -31.15,13.828 -20.76,27.68 10.38,13.851 15.86,38.301 50.46,45.219 34.6,6.929 56.84,25.121 74.14,42.431 17.3,17.3 84.71,60.45 103.8,76.12 -44.19,34.88 -55.36,34.61 -117.64,93.43 0,0 -190.34,-25.37 -224.95,-25.37 -34.6,0 -57.78,-5.56 -86.51,-27.67 -12.66,-9.75 -72.66,13.84 -86.5,34.6 -13.84,20.76 0.69,105.01 13.26,148.6 12.56,43.6 -21.03,51.13 6.65,151.49 27.68,100.34 35.45,128.98 -26.83,194.72 -62.29,65.74 -72.67,83.04 -141.87,121.1 -69.2,38.07 -290.189,143.06 -302.017,143.8 -11.824,0.74 -30.172,-29.6 -33.629,-53.83 -3.457,-24.22 -17.293,-72.66 -72.66,-86.5 -55.367,-13.84 -83.047,-17.3 -121.11,-48.44 -38.058,-31.15 -27.679,-48.45 -48.441,-86.51 -20.762,-38.06 -21.855,-62.59 -52.996,-86.81 -31.145,-24.22 -23.309,-21.67 -50.988,-25.13 0,0 -65.567,46.2 -65.567,87.72 0,41.52 24.219,51.9 38.063,107.26 25.547,102.17 78.851,266.86 85.14,279.44 24.223,48.44 15.203,21.6 56.731,66.58 41.519,44.98 60.531,66.83 57.066,94.51" /><path
             id="path32"
             style="fill:none;stroke:#231f20;stroke-width:10;stroke-linecap:butt;stroke-linejoin:miter;stroke-miterlimit:4;stroke-dasharray:none;stroke-opacity:1"
             d="m 688.992,2185.6 c 0,0 7.86,71.15 14.781,84.98 6.926,13.84 17.735,36.95 17.735,36.95 0,0 28.062,60.38 38.441,60.38 10.383,0 32.731,-18.93 36.196,-39.69 3.46,-20.76 20.886,-124.38 34.73,-127.84 13.844,-3.45 153.992,77.57 171.295,84.48 17.3,6.93 33.09,14.55 50.39,14.55 l -5.41,-31.85 c 0,0 3.46,-3.46 41.52,10.38 38.06,13.85 72.67,34.61 103.81,51.9 31.14,17.3 76.12,27.68 51.9,-3.46 -24.22,-31.13 -10.38,-41.52 17.3,-38.06 27.69,3.47 96.88,20.77 131.49,34.61 34.6,13.84 103.81,27.68 65.75,-3.47 -38.07,-31.14 -55.37,-55.36 -13.85,-58.82 41.53,-3.46 110.73,13.84 152.25,10.38 41.53,-3.46 76.13,6.92 27.68,-31.14 -48.44,-38.06 -48.44,-38.06 -48.44,-38.06 0,0 41.52,-34.6 93.43,-44.98 51.9,-10.38 152.25,-13.84 214.53,-34.61 0,0 291.76,105.58 506.3,8.7 214.54,-96.89 182.29,-95.21 216.89,-109.04 34.59,-13.84 151.85,-57.24 233.87,-2.55 0,0 18.71,140.95 236.71,134.04 218,-6.92 186.85,-3.47 245.67,17.3 58.83,20.76 71.73,49.89 102.88,53.36 31.14,3.46 35.53,-11.84 14.77,-46.44 -20.76,-34.6 -134.95,-193.77 -332.18,-217.99 -197.22,-24.23 -235.29,-41.53 -276.81,-62.29 -41.53,-20.76 -89.97,-24.22 -114.19,-38.06 -24.22,-13.84 -13.83,3.46 -27.68,-55.37 -13.85,-58.82 -51.9,-114.18 -93.43,-166.09 -41.52,-51.9 -63.54,-55.78 -91.23,-97.31 -27.68,-41.52 -59.85,-72.41 -116.38,-124.14 -53.85,-49.27 -100.34,-86.5 -100.34,-124.56 0,-38.07 10.38,-69.21 -20.77,-89.97 -31.14,-20.76 -83.95,-18.98 -148.98,-29.33 -59.68,-9.5 -95.33,-44.33 -101.24,-57.64 -5.91,-13.3 14.01,-13.73 24.39,-31.03 10.38,-17.31 2.35,-32 36.95,-35.47 34.6,-3.47 48.23,17.1 62.07,-14.04 13.84,-31.15 12.57,-45.08 12.62,-81.619 0,2.629 -41.44,-1.152 -64.35,16.59 -15.23,11.789 -43.69,18.739 -80.97,28.391 -18.79,4.858 -41.49,46.118 -65.71,63.408 0,0 -18.51,-53.43 -76.16,-77.248 -17.32,-7.16 -38.17,-22.344 -62.4,-50.023 -24.22,-27.68 -38.53,-55.649 -75.37,-42.86 0,0 -23.15,-35.129 -26.6,-62.808 0,0 -23.68,-28.461 -81.31,-13.86 -2.19,0.551 -51.38,23.078 -2.94,61.149 48.45,38.07 37.55,35.73 37.55,35.73 0,0 -31.15,13.828 -20.76,27.68 10.38,13.851 15.86,38.301 50.46,45.219 34.6,6.929 56.84,25.121 74.14,42.431 17.3,17.3 84.71,60.45 103.8,76.12 -44.19,34.88 -55.36,34.61 -117.64,93.43 0,0 -190.34,-25.37 -224.95,-25.37 -34.6,0 -57.78,-5.56 -86.51,-27.67 -12.66,-9.75 -72.66,13.84 -86.5,34.6 -13.84,20.76 0.69,105.01 13.26,148.6 12.56,43.6 -21.03,51.13 6.65,151.49 27.68,100.34 35.45,128.98 -26.83,194.72 -62.29,65.74 -72.67,83.04 -141.87,121.1 -69.2,38.07 -290.189,143.06 -302.017,143.8 -11.824,0.74 -30.172,-29.6 -33.629,-53.83 -3.457,-24.22 -17.293,-72.66 -72.66,-86.5 -55.367,-13.84 -83.047,-17.3 -121.11,-48.44 -38.058,-31.15 -27.679,-48.45 -48.441,-86.51 -20.762,-38.06 -21.855,-62.59 -52.996,-86.81 -31.145,-24.22 -23.309,-21.67 -50.988,-25.13 0,0 -65.567,46.2 -65.567,87.72 0,41.52 24.219,51.9 38.063,107.26 25.547,102.17 78.851,266.86 85.14,279.44 24.223,48.44 15.203,21.6 56.731,66.58 41.519,44.98 60.531,66.83 57.066,94.51 z" /><path
             id="path34"
             style="fill:#ffffff;fill-opacity:1;fill-rule:nonzero;stroke:none"
             d="m 1587.81,1382.98 c 0,0 1.48,4.42 10.34,-3.7 8.87,-8.13 51.74,-78.33 62.08,-89.42 10.34,-11.08 9.6,-19.21 5.17,-24.38 -4.43,-5.17 -50.25,-11.83 -65.77,-13.3 -15.51,-1.48 -41.38,-2.22 -56.16,0.74 0,0 -3.69,5.17 0.74,8.13 4.43,2.95 15.52,16.99 21.43,37.68 5.91,20.69 16.26,45.82 16.26,57.65 0,11.82 1.47,22.17 5.91,26.6" /><path
             id="path36"
             style="fill:#ffffff;fill-opacity:1;fill-rule:nonzero;stroke:none"
             d="m 1861.95,1502.27 c 16.26,0 84.99,0 109.37,2.22 22.38,2.03 136.4,8.89 170.7,47.29 18.48,20.69 38.42,2.22 39.9,-18.47 1.49,-20.69 -10.35,-129.31 -23.65,-169.96 -13.3,-40.64 -24.37,-93.86 -74.63,-112.32 -42.13,-15.48 -84.26,-29.56 -100.51,-47.3 -16.25,-17.73 -23.63,-25.87 -30.28,-32.52 -6.65,-6.65 -15.53,-7.39 -25.13,6.65 -9.6,14.05 -17.74,26.61 -25.86,35.48 0,0 -5.91,5.91 8.87,10.34 14.77,4.44 94.59,44.35 107.89,62.82 13.3,18.46 5.9,31.77 -16.27,40.64 -22.16,8.87 -76.1,11.08 -82.76,3.69 -6.65,-7.39 -4.43,-28.82 -10.34,-33.25 -5.92,-4.43 -16.99,-16.25 -26.6,-17.74 -9.61,-1.48 -32.62,0 -43.6,0 -10.35,0 -11.09,7.4 -11.83,17 -0.74,9.6 -10.34,94.59 -9.6,123.41 0.73,28.81 5.17,70.2 10.34,76.11 5.17,5.91 14.78,5.91 33.99,5.91" /><path
             id="path38"
             style="fill:#ea232c;fill-opacity:1;fill-rule:nonzero;stroke:none"
             d="m 1868.1,1460.28 c 0,0 2.96,10.35 22.91,8.87 19.95,-1.47 166.27,2.22 205.44,25.87 25.82,15.58 48.76,20.69 50.98,15.51 2.22,-5.17 0,-28.82 -2.96,-50.25 -2.96,-21.43 -22.17,-104.94 -31.03,-121.19 -8.87,-16.25 -13.3,-48.02 -38.43,-23.64 -25.13,24.38 -29.56,46.55 -57.64,53.2 -28.07,6.65 -59.13,11.09 -83.5,7.4 -24.39,-3.7 -42.12,-3.71 -45.08,-22.91 -2.96,-19.21 -4.43,-23.65 -20.69,-25.86 0,0 -2.22,118.96 0,133" /><path
             id="path40"
             style="fill:#e8252c;fill-opacity:1;fill-rule:evenodd;stroke:none"
             d="m 2095.09,1088.55 c -2.65,0.33 -3.7,5.9 -9.61,11.08 -5.91,5.18 5.91,15.52 26.6,23.65 20.69,8.14 84.24,22.16 79.8,9.6 -4.43,-12.56 -23.65,-42.86 -28.81,-47.29 -5.17,-4.44 -2.21,-3.69 -19.21,-1.48 -17,2.22 -31.04,2.22 -48.77,4.44" /></g></g></g></g></svg>
